<mxfile host="app.diagrams.net" agent="Mozilla/5.0 (Windows NT 10.0; Win64; x64) AppleWebKit/537.36 (KHTML, like Gecko) Chrome/136.0.0.0 Safari/537.36 Edg/136.0.0.0" version="27.0.3">
  <diagram name="第 1 页" id="ZUuWPneNbqRn6r7qGAvr">
    <mxGraphModel dx="1500" dy="826" grid="1" gridSize="10" guides="1" tooltips="1" connect="1" arrows="1" fold="1" page="1" pageScale="1" pageWidth="827" pageHeight="1169" math="0" shadow="0">
      <root>
        <mxCell id="0" />
        <mxCell id="1" parent="0" />
        <mxCell id="j49izJsou6dDqXH84cwl-1" value="" style="rounded=0;whiteSpace=wrap;html=1;" parent="1" vertex="1">
          <mxGeometry x="590" y="300" width="480" height="270" as="geometry" />
        </mxCell>
        <mxCell id="j49izJsou6dDqXH84cwl-2" value="&lt;span style=&quot;font-size: 16px;&quot;&gt;E&lt;/span&gt;&lt;div&gt;&lt;span style=&quot;font-size: 16px;&quot;&gt;S&lt;/span&gt;&lt;/div&gt;&lt;div&gt;&lt;span style=&quot;font-size: 16px;&quot;&gt;P&lt;/span&gt;&lt;/div&gt;&lt;div&gt;&lt;span style=&quot;font-size: 16px;&quot;&gt;3&lt;/span&gt;&lt;/div&gt;&lt;div&gt;&lt;span style=&quot;font-size: 16px;&quot;&gt;2&lt;/span&gt;&lt;/div&gt;&lt;div&gt;&lt;span style=&quot;font-size: 16px;&quot;&gt;微&lt;/span&gt;&lt;/div&gt;&lt;div&gt;&lt;span style=&quot;font-size: 16px;&quot;&gt;控&lt;/span&gt;&lt;/div&gt;&lt;div&gt;&lt;span style=&quot;font-size: 16px;&quot;&gt;制&lt;/span&gt;&lt;/div&gt;&lt;div&gt;&lt;span style=&quot;font-size: 16px;&quot;&gt;器&lt;/span&gt;&lt;/div&gt;" style="rounded=0;whiteSpace=wrap;html=1;" parent="1" vertex="1">
          <mxGeometry x="900" y="330" width="110" height="210" as="geometry" />
        </mxCell>
        <mxCell id="j49izJsou6dDqXH84cwl-3" value="&lt;br&gt;&lt;div&gt;&lt;div&gt;&lt;span style=&quot;font-size: 16px;&quot;&gt;蜂&lt;/span&gt;&lt;/div&gt;&lt;div&gt;&lt;span style=&quot;font-size: 16px;&quot;&gt;鸣&lt;/span&gt;&lt;/div&gt;&lt;div&gt;&lt;span style=&quot;font-size: 16px;&quot;&gt;器&lt;/span&gt;&lt;/div&gt;&lt;/div&gt;" style="rounded=0;whiteSpace=wrap;html=1;" parent="1" vertex="1">
          <mxGeometry x="640" y="332.5" width="110" height="205" as="geometry" />
        </mxCell>
        <mxCell id="j49izJsou6dDqXH84cwl-4" value="" style="rounded=0;whiteSpace=wrap;html=1;" parent="1" vertex="1">
          <mxGeometry x="730" y="370" width="20" height="20" as="geometry" />
        </mxCell>
        <mxCell id="j49izJsou6dDqXH84cwl-5" value="" style="rounded=0;whiteSpace=wrap;html=1;direction=south;" parent="1" vertex="1">
          <mxGeometry x="730" y="428" width="20" height="20" as="geometry" />
        </mxCell>
        <mxCell id="j49izJsou6dDqXH84cwl-6" value="" style="rounded=0;whiteSpace=wrap;html=1;" parent="1" vertex="1">
          <mxGeometry x="730" y="488" width="20" height="20" as="geometry" />
        </mxCell>
        <mxCell id="j49izJsou6dDqXH84cwl-7" value="" style="rounded=0;whiteSpace=wrap;html=1;" parent="1" vertex="1">
          <mxGeometry x="900" y="374" width="20" height="20" as="geometry" />
        </mxCell>
        <mxCell id="j49izJsou6dDqXH84cwl-8" value="" style="rounded=0;whiteSpace=wrap;html=1;" parent="1" vertex="1">
          <mxGeometry x="900" y="429" width="20" height="20" as="geometry" />
        </mxCell>
        <mxCell id="j49izJsou6dDqXH84cwl-9" value="" style="rounded=0;whiteSpace=wrap;html=1;" parent="1" vertex="1">
          <mxGeometry x="900" y="486" width="20" height="20" as="geometry" />
        </mxCell>
        <mxCell id="j49izJsou6dDqXH84cwl-10" value="" style="endArrow=none;html=1;rounded=0;exitX=1;exitY=0.5;exitDx=0;exitDy=0;entryX=0;entryY=0.5;entryDx=0;entryDy=0;" parent="1" edge="1">
          <mxGeometry width="50" height="50" relative="1" as="geometry">
            <mxPoint x="750" y="440.5" as="sourcePoint" />
            <mxPoint x="900" y="440.5" as="targetPoint" />
          </mxGeometry>
        </mxCell>
        <mxCell id="j49izJsou6dDqXH84cwl-11" value="" style="endArrow=none;html=1;rounded=0;exitX=1;exitY=0.5;exitDx=0;exitDy=0;entryX=0;entryY=0.5;entryDx=0;entryDy=0;" parent="1" edge="1">
          <mxGeometry width="50" height="50" relative="1" as="geometry">
            <mxPoint x="750" y="498.5" as="sourcePoint" />
            <mxPoint x="900" y="498.5" as="targetPoint" />
          </mxGeometry>
        </mxCell>
        <mxCell id="j49izJsou6dDqXH84cwl-13" value="&lt;font style=&quot;font-size: 16px;&quot;&gt;&amp;nbsp; &amp;nbsp;I/O&lt;/font&gt;" style="text;html=1;align=center;verticalAlign=middle;whiteSpace=wrap;rounded=0;" parent="1" vertex="1">
          <mxGeometry x="739" y="414" width="60" height="30" as="geometry" />
        </mxCell>
        <mxCell id="j49izJsou6dDqXH84cwl-14" value="&lt;span style=&quot;font-size: 16px;&quot;&gt;&amp;nbsp; &amp;nbsp;GND&lt;/span&gt;" style="text;html=1;align=center;verticalAlign=middle;whiteSpace=wrap;rounded=0;" parent="1" vertex="1">
          <mxGeometry x="740" y="474" width="60" height="30" as="geometry" />
        </mxCell>
        <mxCell id="j49izJsou6dDqXH84cwl-16" value="&lt;span style=&quot;font-size: 16px;&quot;&gt;D5&lt;/span&gt;" style="text;html=1;align=center;verticalAlign=middle;whiteSpace=wrap;rounded=0;" parent="1" vertex="1">
          <mxGeometry x="845" y="415" width="60" height="30" as="geometry" />
        </mxCell>
        <mxCell id="j49izJsou6dDqXH84cwl-17" value="&lt;span style=&quot;font-size: 16px;&quot;&gt;GND&lt;/span&gt;" style="text;html=1;align=center;verticalAlign=middle;whiteSpace=wrap;rounded=0;" parent="1" vertex="1">
          <mxGeometry x="846" y="473" width="60" height="30" as="geometry" />
        </mxCell>
        <mxCell id="j49izJsou6dDqXH84cwl-19" value="&lt;span style=&quot;font-size: 16px;&quot;&gt;VCC&lt;/span&gt;" style="text;html=1;align=center;verticalAlign=middle;whiteSpace=wrap;rounded=0;" parent="1" vertex="1">
          <mxGeometry x="745" y="354" width="60" height="30" as="geometry" />
        </mxCell>
        <mxCell id="j49izJsou6dDqXH84cwl-20" value="" style="endArrow=none;html=1;rounded=0;exitX=1;exitY=0.5;exitDx=0;exitDy=0;entryX=0;entryY=0.5;entryDx=0;entryDy=0;" parent="1" edge="1">
          <mxGeometry width="50" height="50" relative="1" as="geometry">
            <mxPoint x="750" y="381" as="sourcePoint" />
            <mxPoint x="900" y="381" as="targetPoint" />
          </mxGeometry>
        </mxCell>
        <mxCell id="j49izJsou6dDqXH84cwl-21" value="&lt;span style=&quot;font-size: 16px;&quot;&gt;3V3&lt;/span&gt;" style="text;html=1;align=center;verticalAlign=middle;whiteSpace=wrap;rounded=0;" parent="1" vertex="1">
          <mxGeometry x="846" y="354" width="60" height="30" as="geometry" />
        </mxCell>
      </root>
    </mxGraphModel>
  </diagram>
</mxfile>
